<svg id="visual" viewBox="0 0 960 540" width="1920" height="1080" xmlns="http://www.w3.org/2000/svg" xmlns:xlink="http://www.w3.org/1999/xlink" version="1.1"><path d="M0 408L10.7 399.7C21.3 391.3 42.7 374.7 64 375.5C85.3 376.3 106.7 394.7 128 408.5C149.3 422.3 170.7 431.7 192 436.3C213.3 441 234.7 441 256 434.7C277.3 428.3 298.7 415.7 320 405.8C341.3 396 362.7 389 384 386.3C405.3 383.7 426.7 385.3 448 391.8C469.3 398.3 490.7 409.7 512 404.5C533.3 399.3 554.7 377.7 576 374.8C597.3 372 618.7 388 640 392.8C661.3 397.7 682.7 391.3 704 395.8C725.3 400.3 746.7 415.7 768 410.8C789.3 406 810.7 381 832 371.3C853.3 361.7 874.7 367.3 896 375C917.3 382.7 938.7 392.3 949.3 397.2L960 402L960 541L949.3 541C938.7 541 917.3 541 896 541C874.7 541 853.3 541 832 541C810.7 541 789.3 541 768 541C746.7 541 725.3 541 704 541C682.7 541 661.3 541 640 541C618.7 541 597.3 541 576 541C554.7 541 533.3 541 512 541C490.7 541 469.3 541 448 541C426.7 541 405.3 541 384 541C362.7 541 341.3 541 320 541C298.7 541 277.3 541 256 541C234.7 541 213.3 541 192 541C170.7 541 149.3 541 128 541C106.7 541 85.3 541 64 541C42.7 541 21.3 541 10.7 541L0 541Z" fill="#282828"></path><path d="M0 445L10.7 439.7C21.3 434.3 42.7 423.7 64 419.3C85.3 415 106.7 417 128 414.5C149.3 412 170.7 405 192 404.8C213.3 404.7 234.7 411.3 256 408.8C277.3 406.3 298.7 394.7 320 391.2C341.3 387.7 362.7 392.3 384 393.8C405.3 395.3 426.7 393.7 448 392.2C469.3 390.7 490.7 389.3 512 397C533.3 404.7 554.7 421.3 576 421.3C597.3 421.3 618.7 404.7 640 404.5C661.3 404.3 682.7 420.7 704 432.2C725.3 443.7 746.7 450.3 768 445.2C789.3 440 810.7 423 832 421.7C853.3 420.3 874.7 434.7 896 440.2C917.3 445.7 938.7 442.3 949.3 440.7L960 439L960 541L949.3 541C938.7 541 917.3 541 896 541C874.7 541 853.3 541 832 541C810.7 541 789.3 541 768 541C746.7 541 725.3 541 704 541C682.7 541 661.3 541 640 541C618.7 541 597.3 541 576 541C554.7 541 533.3 541 512 541C490.7 541 469.3 541 448 541C426.7 541 405.3 541 384 541C362.7 541 341.3 541 320 541C298.7 541 277.3 541 256 541C234.7 541 213.3 541 192 541C170.7 541 149.3 541 128 541C106.7 541 85.3 541 64 541C42.7 541 21.3 541 10.7 541L0 541Z" fill="#2c2c2c"></path><path d="M0 409L10.7 413.8C21.3 418.7 42.7 428.3 64 428.8C85.3 429.3 106.7 420.7 128 418.3C149.3 416 170.7 420 192 419.8C213.3 419.7 234.7 415.3 256 423.2C277.3 431 298.7 451 320 453C341.3 455 362.7 439 384 434.7C405.3 430.3 426.7 437.7 448 438C469.3 438.3 490.7 431.7 512 434.5C533.3 437.3 554.7 449.7 576 454.8C597.3 460 618.7 458 640 450.2C661.3 442.3 682.7 428.7 704 429C725.3 429.3 746.7 443.7 768 441.5C789.3 439.3 810.7 420.7 832 412C853.3 403.3 874.7 404.7 896 415C917.3 425.3 938.7 444.7 949.3 454.3L960 464L960 541L949.3 541C938.7 541 917.3 541 896 541C874.7 541 853.3 541 832 541C810.7 541 789.3 541 768 541C746.7 541 725.3 541 704 541C682.7 541 661.3 541 640 541C618.7 541 597.3 541 576 541C554.7 541 533.3 541 512 541C490.7 541 469.3 541 448 541C426.7 541 405.3 541 384 541C362.7 541 341.3 541 320 541C298.7 541 277.3 541 256 541C234.7 541 213.3 541 192 541C170.7 541 149.3 541 128 541C106.7 541 85.3 541 64 541C42.7 541 21.3 541 10.7 541L0 541Z" fill="#353535"></path><path d="M0 428L10.7 428.8C21.3 429.7 42.7 431.3 64 435.7C85.3 440 106.7 447 128 450.8C149.3 454.7 170.7 455.3 192 458.2C213.3 461 234.7 466 256 468.7C277.3 471.3 298.7 471.7 320 466.8C341.3 462 362.7 452 384 451.3C405.3 450.7 426.7 459.3 448 459.2C469.3 459 490.7 450 512 445.8C533.3 441.7 554.7 442.3 576 449.2C597.3 456 618.7 469 640 468.5C661.3 468 682.7 454 704 449C725.3 444 746.7 448 768 454C789.3 460 810.7 468 832 466.7C853.3 465.3 874.7 454.7 896 447C917.3 439.3 938.7 434.7 949.3 432.3L960 430L960 541L949.3 541C938.7 541 917.3 541 896 541C874.7 541 853.3 541 832 541C810.7 541 789.3 541 768 541C746.7 541 725.3 541 704 541C682.7 541 661.3 541 640 541C618.7 541 597.3 541 576 541C554.7 541 533.3 541 512 541C490.7 541 469.3 541 448 541C426.7 541 405.3 541 384 541C362.7 541 341.3 541 320 541C298.7 541 277.3 541 256 541C234.7 541 213.3 541 192 541C170.7 541 149.3 541 128 541C106.7 541 85.3 541 64 541C42.7 541 21.3 541 10.7 541L0 541Z" fill="#3f3f3f"></path><path d="M0 469L10.7 467C21.3 465 42.7 461 64 458.7C85.3 456.3 106.7 455.7 128 460.2C149.3 464.7 170.7 474.3 192 479.2C213.3 484 234.7 484 256 485.3C277.3 486.7 298.7 489.3 320 489.5C341.3 489.7 362.7 487.3 384 484.8C405.3 482.3 426.7 479.7 448 479.3C469.3 479 490.7 481 512 478.3C533.3 475.7 554.7 468.3 576 468.2C597.3 468 618.7 475 640 475.8C661.3 476.7 682.7 471.3 704 470.3C725.3 469.3 746.7 472.7 768 475.5C789.3 478.3 810.7 480.7 832 478.7C853.3 476.7 874.7 470.3 896 466.7C917.3 463 938.7 462 949.3 461.5L960 461L960 541L949.3 541C938.7 541 917.3 541 896 541C874.7 541 853.3 541 832 541C810.7 541 789.3 541 768 541C746.7 541 725.3 541 704 541C682.7 541 661.3 541 640 541C618.7 541 597.3 541 576 541C554.7 541 533.3 541 512 541C490.7 541 469.3 541 448 541C426.7 541 405.3 541 384 541C362.7 541 341.3 541 320 541C298.7 541 277.3 541 256 541C234.7 541 213.3 541 192 541C170.7 541 149.3 541 128 541C106.7 541 85.3 541 64 541C42.7 541 21.3 541 10.7 541L0 541Z" fill="#494949"></path><path d="M0 494L10.7 493.2C21.3 492.3 42.7 490.7 64 492.3C85.3 494 106.7 499 128 498C149.3 497 170.7 490 192 485C213.3 480 234.7 477 256 481.8C277.3 486.7 298.7 499.3 320 505.8C341.3 512.3 362.7 512.7 384 510C405.3 507.3 426.7 501.7 448 496.8C469.3 492 490.7 488 512 490.7C533.3 493.3 554.7 502.7 576 507C597.3 511.3 618.7 510.7 640 505.3C661.3 500 682.7 490 704 489.7C725.3 489.3 746.7 498.7 768 502.5C789.3 506.3 810.7 504.7 832 505.7C853.3 506.7 874.7 510.3 896 508.2C917.3 506 938.7 498 949.3 494L960 490L960 541L949.3 541C938.7 541 917.3 541 896 541C874.7 541 853.3 541 832 541C810.7 541 789.3 541 768 541C746.7 541 725.3 541 704 541C682.7 541 661.3 541 640 541C618.7 541 597.3 541 576 541C554.7 541 533.3 541 512 541C490.7 541 469.3 541 448 541C426.7 541 405.3 541 384 541C362.7 541 341.3 541 320 541C298.7 541 277.3 541 256 541C234.7 541 213.3 541 192 541C170.7 541 149.3 541 128 541C106.7 541 85.3 541 64 541C42.7 541 21.3 541 10.7 541L0 541Z" fill="#535353"></path><path d="M0 527L10.7 526.8C21.3 526.7 42.7 526.3 64 522.2C85.3 518 106.7 510 128 508.8C149.3 507.7 170.7 513.3 192 517.3C213.3 521.3 234.7 523.7 256 520.2C277.3 516.7 298.7 507.3 320 504C341.3 500.7 362.7 503.3 384 507.3C405.3 511.3 426.7 516.7 448 518C469.3 519.3 490.7 516.7 512 514.2C533.3 511.7 554.7 509.3 576 509.8C597.3 510.3 618.7 513.7 640 515.3C661.3 517 682.7 517 704 516.2C725.3 515.3 746.7 513.7 768 512.2C789.3 510.7 810.7 509.3 832 511.5C853.3 513.7 874.7 519.3 896 519.7C917.3 520 938.7 515 949.3 512.5L960 510L960 541L949.3 541C938.7 541 917.3 541 896 541C874.7 541 853.3 541 832 541C810.7 541 789.3 541 768 541C746.7 541 725.3 541 704 541C682.7 541 661.3 541 640 541C618.7 541 597.3 541 576 541C554.7 541 533.3 541 512 541C490.7 541 469.3 541 448 541C426.7 541 405.3 541 384 541C362.7 541 341.3 541 320 541C298.7 541 277.3 541 256 541C234.7 541 213.3 541 192 541C170.7 541 149.3 541 128 541C106.7 541 85.3 541 64 541C42.7 541 21.3 541 10.7 541L0 541Z" fill="#5e5e5e"></path></svg>