<svg id="visual" viewBox="0 0 1920 1080" width="1920" height="1080" xmlns="http://www.w3.org/2000/svg" xmlns:xlink="http://www.w3.org/1999/xlink" version="1.1"><path d="M0 572L24.7 580.3C49.3 588.7 98.7 605.3 147.8 613C197 620.7 246 619.3 295.2 622.2C344.3 625 393.7 632 443 619C492.3 606 541.7 573 590.8 573.3C640 573.7 689 607.3 738.2 617.7C787.3 628 836.7 615 886 606.5C935.3 598 984.7 594 1034 600.3C1083.3 606.7 1132.7 623.3 1181.8 619.2C1231 615 1280 590 1329.2 580.7C1378.3 571.3 1427.7 577.7 1477 582.7C1526.3 587.7 1575.7 591.3 1624.8 597.5C1674 603.7 1723 612.3 1772.2 605.7C1821.3 599 1870.7 577 1895.3 566L1920 555L1920 1081L1895.3 1081C1870.7 1081 1821.3 1081 1772.2 1081C1723 1081 1674 1081 1624.8 1081C1575.7 1081 1526.3 1081 1477 1081C1427.7 1081 1378.3 1081 1329.2 1081C1280 1081 1231 1081 1181.8 1081C1132.7 1081 1083.3 1081 1034 1081C984.7 1081 935.3 1081 886 1081C836.7 1081 787.3 1081 738.2 1081C689 1081 640 1081 590.8 1081C541.7 1081 492.3 1081 443 1081C393.7 1081 344.3 1081 295.2 1081C246 1081 197 1081 147.8 1081C98.7 1081 49.3 1081 24.7 1081L0 1081Z" fill="#292929"></path><path d="M0 676L24.7 665.2C49.3 654.3 98.7 632.7 147.8 620.2C197 607.7 246 604.3 295.2 610.3C344.3 616.3 393.7 631.7 443 642.2C492.3 652.7 541.7 658.3 590.8 656.5C640 654.7 689 645.3 738.2 639.2C787.3 633 836.7 630 886 642C935.3 654 984.7 681 1034 688.7C1083.3 696.3 1132.7 684.7 1181.8 683.3C1231 682 1280 691 1329.2 689.7C1378.3 688.3 1427.7 676.7 1477 665.5C1526.3 654.3 1575.7 643.7 1624.8 650.2C1674 656.7 1723 680.3 1772.2 680.8C1821.3 681.3 1870.7 658.7 1895.3 647.3L1920 636L1920 1081L1895.3 1081C1870.7 1081 1821.3 1081 1772.2 1081C1723 1081 1674 1081 1624.8 1081C1575.7 1081 1526.3 1081 1477 1081C1427.7 1081 1378.3 1081 1329.2 1081C1280 1081 1231 1081 1181.8 1081C1132.7 1081 1083.3 1081 1034 1081C984.7 1081 935.3 1081 886 1081C836.7 1081 787.3 1081 738.2 1081C689 1081 640 1081 590.8 1081C541.7 1081 492.3 1081 443 1081C393.7 1081 344.3 1081 295.2 1081C246 1081 197 1081 147.8 1081C98.7 1081 49.3 1081 24.7 1081L0 1081Z" fill="#2f2f2f"></path><path d="M0 707L24.7 717.7C49.3 728.3 98.7 749.7 147.8 757.7C197 765.7 246 760.3 295.2 747C344.3 733.7 393.7 712.3 443 711.5C492.3 710.7 541.7 730.3 590.8 728.7C640 727 689 704 738.2 692.2C787.3 680.3 836.7 679.7 886 694.2C935.3 708.7 984.7 738.3 1034 747C1083.3 755.7 1132.7 743.3 1181.8 734.2C1231 725 1280 719 1329.2 721C1378.3 723 1427.7 733 1477 737C1526.3 741 1575.7 739 1624.8 734.8C1674 730.7 1723 724.3 1772.2 720.8C1821.3 717.3 1870.7 716.7 1895.3 716.3L1920 716L1920 1081L1895.3 1081C1870.7 1081 1821.3 1081 1772.2 1081C1723 1081 1674 1081 1624.8 1081C1575.7 1081 1526.3 1081 1477 1081C1427.7 1081 1378.3 1081 1329.2 1081C1280 1081 1231 1081 1181.8 1081C1132.7 1081 1083.3 1081 1034 1081C984.7 1081 935.3 1081 886 1081C836.7 1081 787.3 1081 738.2 1081C689 1081 640 1081 590.8 1081C541.7 1081 492.3 1081 443 1081C393.7 1081 344.3 1081 295.2 1081C246 1081 197 1081 147.8 1081C98.7 1081 49.3 1081 24.7 1081L0 1081Z" fill="#363636"></path><path d="M0 759L24.7 767.7C49.3 776.3 98.7 793.7 147.8 803.5C197 813.3 246 815.7 295.2 820.2C344.3 824.7 393.7 831.3 443 833C492.3 834.7 541.7 831.3 590.8 821.3C640 811.3 689 794.7 738.2 784.7C787.3 774.7 836.7 771.3 886 769C935.3 766.7 984.7 765.3 1034 763.7C1083.3 762 1132.7 760 1181.8 768.7C1231 777.3 1280 796.7 1329.2 802.7C1378.3 808.7 1427.7 801.3 1477 803.3C1526.3 805.3 1575.7 816.7 1624.8 816.8C1674 817 1723 806 1772.2 801.2C1821.3 796.3 1870.7 797.7 1895.3 798.3L1920 799L1920 1081L1895.3 1081C1870.7 1081 1821.3 1081 1772.2 1081C1723 1081 1674 1081 1624.8 1081C1575.7 1081 1526.3 1081 1477 1081C1427.7 1081 1378.3 1081 1329.2 1081C1280 1081 1231 1081 1181.8 1081C1132.7 1081 1083.3 1081 1034 1081C984.7 1081 935.3 1081 886 1081C836.7 1081 787.3 1081 738.2 1081C689 1081 640 1081 590.8 1081C541.7 1081 492.3 1081 443 1081C393.7 1081 344.3 1081 295.2 1081C246 1081 197 1081 147.8 1081C98.7 1081 49.3 1081 24.7 1081L0 1081Z" fill="#3c3c3c"></path><path d="M0 863L24.7 855.7C49.3 848.3 98.7 833.7 147.8 829.7C197 825.7 246 832.3 295.2 842.3C344.3 852.3 393.7 865.7 443 862.2C492.3 858.7 541.7 838.3 590.8 830.7C640 823 689 828 738.2 830.2C787.3 832.3 836.7 831.7 886 831.5C935.3 831.3 984.7 831.7 1034 834.5C1083.3 837.3 1132.7 842.7 1181.8 852.7C1231 862.7 1280 877.3 1329.2 884.2C1378.3 891 1427.7 890 1477 888.5C1526.3 887 1575.7 885 1624.8 880.8C1674 876.7 1723 870.3 1772.2 861.5C1821.3 852.7 1870.7 841.3 1895.3 835.7L1920 830L1920 1081L1895.3 1081C1870.7 1081 1821.3 1081 1772.2 1081C1723 1081 1674 1081 1624.8 1081C1575.7 1081 1526.3 1081 1477 1081C1427.7 1081 1378.3 1081 1329.2 1081C1280 1081 1231 1081 1181.8 1081C1132.7 1081 1083.3 1081 1034 1081C984.7 1081 935.3 1081 886 1081C836.7 1081 787.3 1081 738.2 1081C689 1081 640 1081 590.8 1081C541.7 1081 492.3 1081 443 1081C393.7 1081 344.3 1081 295.2 1081C246 1081 197 1081 147.8 1081C98.7 1081 49.3 1081 24.7 1081L0 1081Z" fill="#424242"></path><path d="M0 936L24.7 939.8C49.3 943.7 98.7 951.3 147.8 952.5C197 953.7 246 948.3 295.2 940.8C344.3 933.3 393.7 923.7 443 922.2C492.3 920.7 541.7 927.3 590.8 931.8C640 936.3 689 938.7 738.2 937C787.3 935.3 836.7 929.7 886 926.5C935.3 923.3 984.7 922.7 1034 923.8C1083.3 925 1132.7 928 1181.8 930.3C1231 932.7 1280 934.3 1329.2 938.5C1378.3 942.7 1427.7 949.3 1477 951.8C1526.3 954.3 1575.7 952.7 1624.8 944.5C1674 936.3 1723 921.7 1772.2 922.2C1821.3 922.7 1870.7 938.3 1895.3 946.2L1920 954L1920 1081L1895.3 1081C1870.7 1081 1821.3 1081 1772.2 1081C1723 1081 1674 1081 1624.8 1081C1575.7 1081 1526.3 1081 1477 1081C1427.7 1081 1378.3 1081 1329.2 1081C1280 1081 1231 1081 1181.8 1081C1132.7 1081 1083.3 1081 1034 1081C984.7 1081 935.3 1081 886 1081C836.7 1081 787.3 1081 738.2 1081C689 1081 640 1081 590.8 1081C541.7 1081 492.3 1081 443 1081C393.7 1081 344.3 1081 295.2 1081C246 1081 197 1081 147.8 1081C98.7 1081 49.3 1081 24.7 1081L0 1081Z" fill="#494949"></path><path d="M0 989L24.7 992.5C49.3 996 98.7 1003 147.8 1003.3C197 1003.7 246 997.3 295.2 1000.3C344.3 1003.3 393.7 1015.7 443 1012.5C492.3 1009.3 541.7 990.7 590.8 986.7C640 982.7 689 993.3 738.2 996.8C787.3 1000.3 836.7 996.7 886 994.7C935.3 992.7 984.7 992.3 1034 998.3C1083.3 1004.3 1132.7 1016.7 1181.8 1017.7C1231 1018.7 1280 1008.3 1329.2 998.2C1378.3 988 1427.7 978 1477 976.5C1526.3 975 1575.7 982 1624.8 986.8C1674 991.7 1723 994.3 1772.2 1001C1821.3 1007.7 1870.7 1018.3 1895.3 1023.7L1920 1029L1920 1081L1895.3 1081C1870.7 1081 1821.3 1081 1772.2 1081C1723 1081 1674 1081 1624.8 1081C1575.7 1081 1526.3 1081 1477 1081C1427.7 1081 1378.3 1081 1329.2 1081C1280 1081 1231 1081 1181.8 1081C1132.7 1081 1083.3 1081 1034 1081C984.7 1081 935.3 1081 886 1081C836.7 1081 787.3 1081 738.2 1081C689 1081 640 1081 590.8 1081C541.7 1081 492.3 1081 443 1081C393.7 1081 344.3 1081 295.2 1081C246 1081 197 1081 147.8 1081C98.7 1081 49.3 1081 24.7 1081L0 1081Z" fill="#4f4f4f"></path></svg>