<svg id="visual" viewBox="0 0 960 540" width="1920" height="1080" xmlns="http://www.w3.org/2000/svg" xmlns:xlink="http://www.w3.org/1999/xlink" version="1.1"><path d="M0 354L10.7 365C21.3 376 42.7 398 64 402.3C85.3 406.7 106.7 393.3 128 382.7C149.3 372 170.7 364 192 363.5C213.3 363 234.7 370 256 374.8C277.3 379.7 298.7 382.3 320 383.7C341.3 385 362.7 385 384 381.5C405.3 378 426.7 371 448 372.2C469.3 373.3 490.7 382.7 512 391.3C533.3 400 554.7 408 576 404.7C597.3 401.3 618.7 386.7 640 391.2C661.3 395.7 682.7 419.3 704 417.2C725.3 415 746.7 387 768 372.2C789.3 357.3 810.7 355.7 832 362.5C853.3 369.3 874.7 384.7 896 385.3C917.3 386 938.7 372 949.3 365L960 358L960 541L949.3 541C938.7 541 917.3 541 896 541C874.7 541 853.3 541 832 541C810.7 541 789.3 541 768 541C746.7 541 725.3 541 704 541C682.7 541 661.3 541 640 541C618.7 541 597.3 541 576 541C554.7 541 533.3 541 512 541C490.7 541 469.3 541 448 541C426.7 541 405.3 541 384 541C362.7 541 341.3 541 320 541C298.7 541 277.3 541 256 541C234.7 541 213.3 541 192 541C170.7 541 149.3 541 128 541C106.7 541 85.3 541 64 541C42.7 541 21.3 541 10.7 541L0 541Z" fill="#232323"></path><path d="M0 380L10.7 392.5C21.3 405 42.7 430 64 441.2C85.3 452.3 106.7 449.7 128 442.8C149.3 436 170.7 425 192 420.7C213.3 416.3 234.7 418.7 256 415C277.3 411.3 298.7 401.7 320 401.7C341.3 401.7 362.7 411.3 384 416C405.3 420.7 426.7 420.3 448 415.3C469.3 410.3 490.7 400.7 512 405.3C533.3 410 554.7 429 576 439C597.3 449 618.7 450 640 440.3C661.3 430.7 682.7 410.3 704 400.8C725.3 391.3 746.7 392.7 768 395.3C789.3 398 810.7 402 832 408.3C853.3 414.7 874.7 423.3 896 424.2C917.3 425 938.7 418 949.3 414.5L960 411L960 541L949.3 541C938.7 541 917.3 541 896 541C874.7 541 853.3 541 832 541C810.7 541 789.3 541 768 541C746.7 541 725.3 541 704 541C682.7 541 661.3 541 640 541C618.7 541 597.3 541 576 541C554.7 541 533.3 541 512 541C490.7 541 469.3 541 448 541C426.7 541 405.3 541 384 541C362.7 541 341.3 541 320 541C298.7 541 277.3 541 256 541C234.7 541 213.3 541 192 541C170.7 541 149.3 541 128 541C106.7 541 85.3 541 64 541C42.7 541 21.3 541 10.7 541L0 541Z" fill="#2c2c2c"></path><path d="M0 434L10.7 438.7C21.3 443.3 42.7 452.7 64 456.5C85.3 460.3 106.7 458.7 128 459.7C149.3 460.7 170.7 464.3 192 464.7C213.3 465 234.7 462 256 462.2C277.3 462.3 298.7 465.7 320 467.5C341.3 469.3 362.7 469.7 384 460.2C405.3 450.7 426.7 431.3 448 425.2C469.3 419 490.7 426 512 432.5C533.3 439 554.7 445 576 442.7C597.3 440.3 618.7 429.7 640 421.7C661.3 413.7 682.7 408.3 704 406.7C725.3 405 746.7 407 768 413.5C789.3 420 810.7 431 832 440.8C853.3 450.7 874.7 459.3 896 461C917.3 462.7 938.7 457.3 949.3 454.7L960 452L960 541L949.3 541C938.7 541 917.3 541 896 541C874.7 541 853.3 541 832 541C810.7 541 789.3 541 768 541C746.7 541 725.3 541 704 541C682.7 541 661.3 541 640 541C618.7 541 597.3 541 576 541C554.7 541 533.3 541 512 541C490.7 541 469.3 541 448 541C426.7 541 405.3 541 384 541C362.7 541 341.3 541 320 541C298.7 541 277.3 541 256 541C234.7 541 213.3 541 192 541C170.7 541 149.3 541 128 541C106.7 541 85.3 541 64 541C42.7 541 21.3 541 10.7 541L0 541Z" fill="#353535"></path><path d="M0 458L10.7 453C21.3 448 42.7 438 64 441C85.3 444 106.7 460 128 459.7C149.3 459.3 170.7 442.7 192 437.8C213.3 433 234.7 440 256 448.5C277.3 457 298.7 467 320 467.7C341.3 468.3 362.7 459.7 384 460.2C405.3 460.7 426.7 470.3 448 470.2C469.3 470 490.7 460 512 452.3C533.3 444.7 554.7 439.3 576 439.3C597.3 439.3 618.7 444.7 640 446.2C661.3 447.7 682.7 445.3 704 446C725.3 446.7 746.7 450.3 768 453.5C789.3 456.7 810.7 459.3 832 461C853.3 462.7 874.7 463.3 896 461.5C917.3 459.7 938.7 455.3 949.3 453.2L960 451L960 541L949.3 541C938.7 541 917.3 541 896 541C874.7 541 853.3 541 832 541C810.7 541 789.3 541 768 541C746.7 541 725.3 541 704 541C682.7 541 661.3 541 640 541C618.7 541 597.3 541 576 541C554.7 541 533.3 541 512 541C490.7 541 469.3 541 448 541C426.7 541 405.3 541 384 541C362.7 541 341.3 541 320 541C298.7 541 277.3 541 256 541C234.7 541 213.3 541 192 541C170.7 541 149.3 541 128 541C106.7 541 85.3 541 64 541C42.7 541 21.3 541 10.7 541L0 541Z" fill="#3f3f3f"></path><path d="M0 463L10.7 467.2C21.3 471.3 42.7 479.7 64 484.5C85.3 489.3 106.7 490.7 128 489C149.3 487.3 170.7 482.7 192 481.5C213.3 480.3 234.7 482.7 256 479.2C277.3 475.7 298.7 466.3 320 463.3C341.3 460.3 362.7 463.7 384 465.2C405.3 466.7 426.7 466.3 448 467.7C469.3 469 490.7 472 512 470.8C533.3 469.7 554.7 464.3 576 467.5C597.3 470.7 618.7 482.3 640 481.3C661.3 480.3 682.7 466.7 704 463.2C725.3 459.7 746.7 466.3 768 467C789.3 467.7 810.7 462.3 832 459C853.3 455.7 874.7 454.3 896 459.2C917.3 464 938.7 475 949.3 480.5L960 486L960 541L949.3 541C938.7 541 917.3 541 896 541C874.7 541 853.3 541 832 541C810.7 541 789.3 541 768 541C746.7 541 725.3 541 704 541C682.7 541 661.3 541 640 541C618.7 541 597.3 541 576 541C554.7 541 533.3 541 512 541C490.7 541 469.3 541 448 541C426.7 541 405.3 541 384 541C362.7 541 341.3 541 320 541C298.7 541 277.3 541 256 541C234.7 541 213.3 541 192 541C170.7 541 149.3 541 128 541C106.7 541 85.3 541 64 541C42.7 541 21.3 541 10.7 541L0 541Z" fill="#494949"></path><path d="M0 475L10.7 475.3C21.3 475.7 42.7 476.3 64 482C85.3 487.7 106.7 498.3 128 499C149.3 499.7 170.7 490.3 192 484.5C213.3 478.7 234.7 476.3 256 480.8C277.3 485.3 298.7 496.7 320 502.2C341.3 507.7 362.7 507.3 384 502.5C405.3 497.7 426.7 488.3 448 483.2C469.3 478 490.7 477 512 481.2C533.3 485.3 554.7 494.7 576 499.3C597.3 504 618.7 504 640 499.2C661.3 494.3 682.7 484.7 704 481C725.3 477.3 746.7 479.7 768 482.2C789.3 484.7 810.7 487.3 832 492.7C853.3 498 874.7 506 896 506.7C917.3 507.3 938.7 500.7 949.3 497.3L960 494L960 541L949.3 541C938.7 541 917.3 541 896 541C874.7 541 853.3 541 832 541C810.7 541 789.3 541 768 541C746.7 541 725.3 541 704 541C682.7 541 661.3 541 640 541C618.7 541 597.3 541 576 541C554.7 541 533.3 541 512 541C490.7 541 469.3 541 448 541C426.7 541 405.3 541 384 541C362.7 541 341.3 541 320 541C298.7 541 277.3 541 256 541C234.7 541 213.3 541 192 541C170.7 541 149.3 541 128 541C106.7 541 85.3 541 64 541C42.7 541 21.3 541 10.7 541L0 541Z" fill="#535353"></path><path d="M0 516L10.7 516C21.3 516 42.7 516 64 517C85.3 518 106.7 520 128 517C149.3 514 170.7 506 192 502.2C213.3 498.3 234.7 498.7 256 500.8C277.3 503 298.7 507 320 507.2C341.3 507.3 362.7 503.7 384 506.2C405.3 508.7 426.7 517.3 448 517.5C469.3 517.7 490.7 509.3 512 505.8C533.3 502.3 554.7 503.7 576 503C597.3 502.3 618.7 499.7 640 499.2C661.3 498.7 682.7 500.3 704 503.8C725.3 507.3 746.7 512.7 768 514.7C789.3 516.7 810.7 515.3 832 514.8C853.3 514.3 874.7 514.7 896 512.2C917.3 509.7 938.7 504.3 949.3 501.7L960 499L960 541L949.3 541C938.7 541 917.3 541 896 541C874.7 541 853.3 541 832 541C810.7 541 789.3 541 768 541C746.7 541 725.3 541 704 541C682.7 541 661.3 541 640 541C618.7 541 597.3 541 576 541C554.7 541 533.3 541 512 541C490.7 541 469.3 541 448 541C426.7 541 405.3 541 384 541C362.7 541 341.3 541 320 541C298.7 541 277.3 541 256 541C234.7 541 213.3 541 192 541C170.7 541 149.3 541 128 541C106.7 541 85.3 541 64 541C42.7 541 21.3 541 10.7 541L0 541Z" fill="#5e5e5e"></path></svg>